 PTC IGES file: pole_50_8.igs                                           S      1
1H,,1H;,9HPOLE_50_8,13Hpole_50_8.igs,                                   G      1
54HCreo Elements/Pro by Parametric Technology Corporation,7H2010480,32, G      2
38,7,38,15,9HPOLE_50_8,1.,2,2HMM,32768,0.5,15H20121119.193706,          G      3
0.00627577,62.7602,4Hasus,7HUnknown,10,0,15H20121119.193706;            G      4
     314       1       1       1       0       0       0       001000200D      1
     314       0       4       1       0                   COLOR       1D      2
     314       2       1       1       0       0       0       001000200D      3
     314       0       1       1       0                   COLOR       2D      4
     314       3       1       1       0       0       0       001000200D      5
     314       0       1       1       0                   COLOR       3D      6
     314       4       1       1       0       0       0       001000200D      7
     314       0       1       1       0                   COLOR       4D      8
     314       5       1       1       0       0       0       001000200D      9
     314       0       8       1       0                   COLOR       5D     10
     314       6       1       1       0       0       0       001000200D     11
     314       0       8       1       0                   COLOR       6D     12
     314       7       1       1       0       0       0       001000200D     13
     314       0       5       1       0                   COLOR       7D     14
     314       8       1       1       0       0       0       001000200D     15
     314       0       8       1       0                   COLOR       8D     16
     124       9       1       1       0       0       0       001000000D     17
     124       0       0       1       0                   XFORM       1D     18
     100      10       1       1       0       0      17       001010000D     19
     100       0       0       1       0                     ARC       1D     20
     124      11       1       1       0       0       0       001000000D     21
     124       0       0       1       0                   XFORM       2D     22
     100      12       1       1       0       0      21       001010000D     23
     100       0       0       1       0                     ARC       2D     24
     124      13       1       1       0       0       0       001000000D     25
     124       0       0       1       0                   XFORM       3D     26
     100      14       1       1       0       0      25       001010000D     27
     100       0       0       1       0                     ARC       3D     28
     110      15       1       1       0       0       0       001010000D     29
     110       0       0       1       0                    LINE       1D     30
     124      16       1       1       0       0       0       001000000D     31
     124       0       0       2       0                   XFORM       4D     32
     100      18       1       1       0       0      31       001010000D     33
     100       0       0       1       0                     ARC       4D     34
     124      19       1       1       0       0       0       001000000D     35
     124       0       0       2       0                   XFORM       5D     36
     100      21       1       1       0       0      35       001010000D     37
     100       0       0       1       0                     ARC       5D     38
     124      22       1       1       0       0       0       001000000D     39
     124       0       0       1       0                   XFORM       6D     40
     100      23       1       1       0       0      39       001010000D     41
     100       0       0       1       0                     ARC       6D     42
     110      24       1       1       0       0       0       001010000D     43
     110       0       0       1       0                    LINE       2D     44
     124      25       1       1       0       0       0       001000000D     45
     124       0       0       1       0                   XFORM       7D     46
     100      26       1       1       0       0      45       001010000D     47
     100       0       0       1       0                     ARC       7D     48
     124      27       1       1       0       0       0       001000000D     49
     124       0       0       2       0                   XFORM       8D     50
     100      29       1       1       0       0      49       001010000D     51
     100       0       0       1       0                     ARC       8D     52
     124      30       1       1       0       0       0       001000000D     53
     124       0       0       1       0                   XFORM       9D     54
     100      31       1       1       0       0      53       001010000D     55
     100       0       0       1       0                     ARC       9D     56
     124      32       1       1       0       0       0       001000000D     57
     124       0       0       1       0                   XFORM      10D     58
     100      33       1       1       0       0      57       001010000D     59
     100       0       0       1       0                     ARC      10D     60
     110      34       1       1       0       0       0       001010000D     61
     110       0       0       2       0                    LINE       3D     62
     110      36       1       1       0       0       0       001010000D     63
     110       0       0       2       0                    LINE       4D     64
     124      38       1       1       0       0       0       001000000D     65
     124       0       0       1       0                   XFORM      11D     66
     100      39       1       1       0       0      65       001010000D     67
     100       0       0       1       0                     ARC      11D     68
     124      40       1       1       0       0       0       001000000D     69
     124       0       0       1       0                   XFORM      12D     70
     100      41       1       1       0       0      69       001010000D     71
     100       0       0       1       0                     ARC      12D     72
     110      42       1       1       0       0       0       001010000D     73
     110       0       0       2       0                    LINE       5D     74
     110      44       1       1       0       0       0       001010000D     75
     110       0       0       2       0                    LINE       6D     76
     124      46       1       1       0       0       0       001000000D     77
     124       0       0       1       0                   XFORM      13D     78
     100      47       1       1       0       0      77       001010000D     79
     100       0       0       1       0                     ARC      13D     80
     124      48       1       1       0       0       0       001000000D     81
     124       0       0       1       0                   XFORM      14D     82
     100      49       1       1       0       0      81       001010000D     83
     100       0       0       1       0                     ARC      14D     84
     124      50       1       1       0       0       0       001000000D     85
     124       0       0       1       0                   XFORM      15D     86
     100      51       1       1       0       0      85       001010000D     87
     100       0       0       1       0                     ARC      15D     88
     124      52       1       1       0       0       0       001000000D     89
     124       0       0       2       0                   XFORM      16D     90
     100      54       1       1       0       0      89       001010000D     91
     100       0       0       1       0                     ARC      16D     92
     110      55       1       1       0       0       0       001010000D     93
     110       0       0       1       0                    LINE       7D     94
     110      56       1       1       0       0       0       001010000D     95
     110       0       0       1       0                    LINE       8D     96
     124      57       1       1       0       0       0       001000000D     97
     124       0       0       1       0                   XFORM      17D     98
     100      58       1       1       0       0      97       001010000D     99
     100       0       0       1       0                     ARC      17D    100
     124      59       1       1       0       0       0       001000000D    101
     124       0       0       1       0                   XFORM      18D    102
     100      60       1       1       0       0     101       001010000D    103
     100       0       0       1       0                     ARC      18D    104
     110      61       1       1       0       0       0       001010000D    105
     110       0       0       2       0                    LINE       9D    106
     124      63       1       1       0       0       0       001000000D    107
     124       0       0       1       0                   XFORM      19D    108
     100      64       1       1       0       0     107       001010000D    109
     100       0       0       1       0                     ARC      19D    110
     124      65       1       1       0       0       0       001000000D    111
     124       0       0       1       0                   XFORM      20D    112
     100      66       1       1       0       0     111       001010000D    113
     100       0       0       1       0                     ARC      20D    114
     110      67       1       1       0       0       0       001010000D    115
     110       0       0       2       0                    LINE      10D    116
     502      69       1       1       0       0       0       001010000D    117
     502       0       0       5       1                  VERTEX       1D    118
     504      74       1       1       0       0       0       000010001D    119
     504       0       0       8       1                    EDGE       1D    120
     128      82       1       1       0       0       0       001010000D    121
     128       0       0       7       0                  SPLSRF       1D    122
     508      89       1       1       0       0       0       001010000D    123
     508       0       0       1       1                EDGELOOP       1D    124
     510      90       1       1       0       0       0       000010000D    125
     510       0       0       1       1                    FACE       1D    126
     110      91       1       1       0       0       0       001010000D    127
     110       0       0       1       0                    LINE      11D    128
     110      92       1       1       0       0       0       001010000D    129
     110       0       0       1       0                    LINE      12D    130
     120      93       1       1       0       0       0       001010000D    131
     120       0       0       1       0                    SREV       1D    132
     508      94       1       1       0       0       0       001010000D    133
     508       0       0       1       1                EDGELOOP       2D    134
     510      95       1       1       0       0       0       000010000D    135
     510       0       0       1       1                    FACE       2D    136
     110      96       1       1       0       0       0       001010000D    137
     110       0       0       1       0                    LINE      13D    138
     124      97       1       1       0       0       0       001000000D    139
     124       0       0       4       0                   XFORM      21D    140
     100     101       1       1       0       0     139       001010000D    141
     100       0       0       1       0                     ARC      21D    142
     120     102       1       1       0       0       0       001010000D    143
     120       0       0       1       0                    SREV       2D    144
     508     103       1       1       0       0       0       001010000D    145
     508       0       0       1       1                EDGELOOP       3D    146
     510     104       1       1       0       0       0       000010000D    147
     510       0       0       1       1                    FACE       3D    148
     110     105       1       1       0       0       0       001010000D    149
     110       0       0       1       0                    LINE      14D    150
     124     106       1       1       0       0       0       001000000D    151
     124       0       0       4       0                   XFORM      22D    152
     100     110       1       1       0       0     151       001010000D    153
     100       0       0       1       0                     ARC      22D    154
     120     111       1       1       0       0       0       001010000D    155
     120       0       0       1       0                    SREV       3D    156
     508     112       1       1       0       0       0       001010000D    157
     508       0       0       1       1                EDGELOOP       4D    158
     510     113       1       1       0       0       0       000010000D    159
     510       0       0       1       1                    FACE       4D    160
     110     114       1       1       0       0       0       001010000D    161
     110       0       0       1       0                    LINE      15D    162
     110     115       1       1       0       0       0       001010000D    163
     110       0       0       1       0                    LINE      16D    164
     120     116       1       1       0       0       0       001010000D    165
     120       0       0       1       0                    SREV       4D    166
     508     117       1       1       0       0       0       001010000D    167
     508       0       0       1       1                EDGELOOP       5D    168
     510     118       1       1       0       0       0       000010000D    169
     510       0       0       1       1                    FACE       5D    170
     128     119       1       1       0       0       0       001010000D    171
     128       0       0       4       0                  SPLSRF       2D    172
     508     123       1       1       0       0       0       001010000D    173
     508       0       0       1       1                EDGELOOP       6D    174
     508     124       1       1       0       0       0       001010000D    175
     508       0       0       1       1                EDGELOOP       7D    176
     510     125       1       1       0       0       0       000010000D    177
     510       0       0       1       1                    FACE       6D    178
     110     126       1       1       0       0       0       001010000D    179
     110       0       0       1       0                    LINE      17D    180
     110     127       1       1       0       0       0       001010000D    181
     110       0       0       2       0                    LINE      18D    182
     120     129       1       1       0       0       0       001010000D    183
     120       0       0       1       0                    SREV       5D    184
     508     130       1       1       0       0       0       001010000D    185
     508       0       0       1       1                EDGELOOP       8D    186
     510     131       1       1       0       0       0       000010000D    187
     510       0       0       1       1                    FACE       7D    188
     110     132       1       1       0       0       0       001010000D    189
     110       0       0       1       0                    LINE      19D    190
     110     133       1       1       0       0       0       001010000D    191
     110       0       0       2       0                    LINE      20D    192
     120     135       1       1       0       0       0       001010000D    193
     120       0       0       1       0                    SREV       6D    194
     508     136       1       1       0       0       0       001010000D    195
     508       0       0       1       1                EDGELOOP       9D    196
     510     137       1       1       0       0       0       000010000D    197
     510       0       0       1       1                    FACE       8D    198
     110     138       1       1       0       0       0       001010000D    199
     110       0       0       1       0                    LINE      21D    200
     110     139       1       1       0       0       0       001010000D    201
     110       0       0       1       0                    LINE      22D    202
     120     140       1       1       0       0       0       001010000D    203
     120       0       0       1       0                    SREV       7D    204
     508     141       1       1       0       0       0       001010000D    205
     508       0       0       1       1                EDGELOOP      10D    206
     510     142       1       1       0       0       0       000010000D    207
     510       0       0       1       1                    FACE       9D    208
     110     143       1       1       0       0       0       001010000D    209
     110       0       0       1       0                    LINE      23D    210
     110     144       1       1       0       0       0       001010000D    211
     110       0       0       2       0                    LINE      24D    212
     120     146       1       1       0       0       0       001010000D    213
     120       0       0       1       0                    SREV       8D    214
     508     147       1       1       0       0       0       001010000D    215
     508       0       0       1       1                EDGELOOP      11D    216
     510     148       1       1       0       0       0       000010000D    217
     510       0       0       1       1                    FACE      10D    218
     128     149       1       1       0       0       0       001010000D    219
     128       0       0       4       0                  SPLSRF       3D    220
     508     153       1       1       0       0       0       001010000D    221
     508       0       0       1       1                EDGELOOP      12D    222
     508     154       1       1       0       0       0       001010000D    223
     508       0       0       1       1                EDGELOOP      13D    224
     510     155       1       1       0       0       0       000010000D    225
     510       0       0       1       1                    FACE      11D    226
     110     156       1       1       0       0       0       001010000D    227
     110       0       0       1       0                    LINE      25D    228
     110     157       1       1       0       0       0       001010000D    229
     110       0       0       1       0                    LINE      26D    230
     120     158       1       1       0       0       0       001010000D    231
     120       0       0       1       0                    SREV       9D    232
     508     159       1       1       0       0       0       001010000D    233
     508       0       0       1       1                EDGELOOP      14D    234
     510     160       1       1       0       0       0       000010000D    235
     510       0       0       1       1                    FACE      12D    236
     110     161       1       1       0       0       0       001010000D    237
     110       0       0       1       0                    LINE      27D    238
     110     162       1       1       0       0       0       001010000D    239
     110       0       0       1       0                    LINE      28D    240
     120     163       1       1       0       0       0       001010000D    241
     120       0       0       1       0                    SREV      10D    242
     508     164       1       1       0       0       0       001010000D    243
     508       0       0       1       1                EDGELOOP      15D    244
     510     165       1       1       0       0       0       000010000D    245
     510       0       0       1       1                    FACE      13D    246
     128     166       1       1       0       0       0       001010000D    247
     128       0       0       8       0                  SPLSRF       4D    248
     508     174       1       1       0       0       0       001010000D    249
     508       0       0       1       1                EDGELOOP      16D    250
     510     175       1       1       0       0       0       000010000D    251
     510       0       0       1       1                    FACE      14D    252
     110     176       1       1       0       0       0       001010000D    253
     110       0       0       1       0                    LINE      29D    254
     110     177       1       1       0       0       0       001010000D    255
     110       0       0       2       0                    LINE      30D    256
     120     179       1       1       0       0       0       001010000D    257
     120       0       0       1       0                    SREV      11D    258
     508     180       1       1       0       0       0       001010000D    259
     508       0       0       1       1                EDGELOOP      17D    260
     510     181       1       1       0       0       0       000010000D    261
     510       0       0       1       1                    FACE      15D    262
     110     182       1       1       0       0       0       001010000D    263
     110       0       0       1       0                    LINE      31D    264
     110     183       1       1       0       0       0       001010000D    265
     110       0       0       1       0                    LINE      32D    266
     120     184       1       1       0       0       0       001010000D    267
     120       0       0       1       0                    SREV      12D    268
     508     185       1       1       0       0       0       001010000D    269
     508       0       0       1       1                EDGELOOP      18D    270
     510     186       1       1       0       0       0       000010000D    271
     510       0       0       1       1                    FACE      16D    272
     514     187       1       1       0       0       0       000010000D    273
     514       0       0       2       1                   SHELL       1D    274
     186     189       1       1       0       0       0       000000000D    275
     186       0       0       1       0                    MSBR       1D    276
314,1.1D0,1.2D0,1D2;                                                   1P      1
314,1.1D1,1.1D1,1.1D1;                                                 3P      2
314,3.92D1,1.2D0,1.2D0;                                                5P      3
314,4.1D1,0D0,2.2D1;                                                   7P      4
314,8.784D1,9.49D1,1D2;                                                9P      5
314,9.6D1,9.6D1,9.6D1;                                                11P      6
314,9.8D1,6.27D1,0D0;                                                 13P      7
314,1D2,1D2,9.49D1;                                                   15P      8
124,1D0,0D0,0D0,0D0,0D0,0D0,1D0,0D0,0D0,-1D0,0D0,0D0;                 17P      9
100,0D0,0D0,0D0,1.7D0,0D0,-1.7D0,0D0;                                 19P     10
124,-1D0,0D0,0D0,0D0,0D0,0D0,1D0,0D0,0D0,1D0,0D0,0D0;                 21P     11
100,0D0,0D0,0D0,1.7D0,0D0,-1.7D0,0D0;                                 23P     12
124,1D0,0D0,0D0,0D0,0D0,0D0,1D0,9.5D0,0D0,-1D0,0D0,0D0;               25P     13
100,0D0,0D0,0D0,1.7D0,0D0,-1.7D0,0D0;                                 27P     14
110,1.7D0,0D0,0D0,1.7D0,9.5D0,5.725060705023D-11;                     29P     15
124,-1D0,0D0,2.188752970533D-9,2.2D0,0D0,1D0,0D0,9.5D0,               31P     16
-2.188752970533D-9,0D0,-1D0,4.815256554602D-9;                        31P     17
100,0D0,0D0,0D0,5D-1,0D0,4.241922675081D-10,5D-1;                     33P     18
124,1D0,0D0,-2.188753109311D-9,-2.2D0,0D0,1D0,0D0,9.5D0,              35P     19
2.188753109311D-9,0D0,1D0,-4.815256859914D-9;                         35P     20
100,0D0,0D0,0D0,5D-1,0D0,4.241922675081D-10,5D-1;                     37P     21
124,-1D0,0D0,0D0,0D0,0D0,0D0,1D0,9.5D0,0D0,1D0,0D0,0D0;               39P     22
100,0D0,0D0,0D0,1.7D0,0D0,-1.7D0,0D0;                                 41P     23
110,-1.7D0,0D0,0D0,-1.7D0,9.5D0,-5.725066255560D-11;                  43P     24
124,-1D0,0D0,0D0,0D0,0D0,0D0,-1D0,1D1,0D0,-1D0,0D0,0D0;               45P     25
100,0D0,0D0,0D0,5.2D0,0D0,-5.2D0,0D0;                                 47P     26
124,1D0,0D0,0D0,0D0,0D0,0D0,-1D0,1D1,0D0,1D0,0D0,                     49P     27
-1.167496615187D-14;                                                  49P     28
100,0D0,0D0,0D0,5.2D0,0D0,-5.2D0,2.372945524776D-14;                  51P     29
124,1D0,0D0,0D0,0D0,0D0,0D0,1D0,1D1,0D0,-1D0,0D0,0D0;                 53P     30
100,0D0,0D0,0D0,2.2D0,0D0,-2.2D0,0D0;                                 55P     31
124,-1D0,0D0,0D0,0D0,0D0,0D0,1D0,1D1,0D0,1D0,0D0,0D0;                 57P     32
100,0D0,0D0,0D0,2.2D0,0D0,-2.2D0,0D0;                                 59P     33
110,-5.199999999002D0,9.999999999002D0,1.175846295359D-9,             61P     34
-5.499999999209D0,1.029999999921D1,9.327632968450D-10;                61P     35
110,5.199999999002D0,9.999999999002D0,-1.175847363150D-9,             63P     36
5.499999999209D0,1.029999999921D1,-9.327628597126D-10;                63P     37
124,-1D0,0D0,0D0,0D0,0D0,0D0,1D0,6.05D1,0D0,1D0,0D0,0D0;              65P     38
100,0D0,0D0,0D0,5.5D0,0D0,-5.5D0,0D0;                                 67P     39
124,1D0,0D0,0D0,0D0,0D0,0D0,-1D0,1.03D1,0D0,1D0,0D0,0D0;              69P     40
100,0D0,0D0,0D0,5.5D0,0D0,-5.5D0,0D0;                                 71P     41
110,-5.499999999209D0,1.029999999921D1,9.327632968450D-10,            73P     42
-5.499999999209D0,6.050000000079D1,9.327629915337D-10;                73P     43
110,-5.199999999002D0,6.080000000100D1,1.175847065114D-9,             75P     44
-5.499999999209D0,6.050000000079D1,9.327629915337D-10;                75P     45
124,1D0,0D0,0D0,0D0,0D0,0D0,1D0,6.08D1,0D0,-1D0,0D0,0D0;              77P     46
100,0D0,0D0,0D0,1.7D0,0D0,-1.7D0,0D0;                                 79P     47
124,-1D0,0D0,0D0,0D0,0D0,0D0,1D0,6.08D1,0D0,1D0,0D0,0D0;              81P     48
100,0D0,0D0,0D0,1.7D0,0D0,-1.7D0,0D0;                                 83P     49
124,1D0,0D0,0D0,0D0,0D0,0D0,1D0,6.08D1,0D0,-1D0,0D0,0D0;              85P     50
100,0D0,0D0,0D0,5.2D0,0D0,-5.2D0,0D0;                                 87P     51
124,-1D0,0D0,0D0,0D0,0D0,0D0,1D0,6.08D1,0D0,1D0,0D0,                  89P     52
-1.167496615187D-14;                                                  89P     53
100,0D0,0D0,0D0,5.2D0,0D0,-5.2D0,2.372945524776D-14;                  91P     54
110,1.7D0,6.08D1,0D0,1.7D0,5.08D1,0D0;                                93P     55
110,-1.7D0,6.08D1,0D0,-1.7D0,5.08D1,0D0;                              95P     56
124,1D0,0D0,0D0,0D0,0D0,0D0,1D0,5.08D1,0D0,-1D0,0D0,0D0;              97P     57
100,0D0,0D0,0D0,1.7D0,0D0,-1.7D0,0D0;                                 99P     58
124,-1D0,0D0,0D0,0D0,0D0,0D0,1D0,5.08D1,0D0,1D0,0D0,0D0;             101P     59
100,0D0,0D0,0D0,1.7D0,0D0,-1.7D0,0D0;                                103P     60
110,5.199999999002D0,6.080000000100D1,-1.175846978273D-9,            105P     61
5.499999999209D0,6.050000000079D1,-9.327628597126D-10;               105P     62
124,1D0,0D0,0D0,0D0,0D0,0D0,1D0,6.05D1,0D0,-1D0,0D0,0D0;             107P     63
100,0D0,0D0,0D0,5.5D0,0D0,-5.5D0,0D0;                                109P     64
124,-1D0,0D0,0D0,0D0,0D0,0D0,-1D0,1.03D1,0D0,-1D0,0D0,0D0;           111P     65
100,0D0,0D0,0D0,5.5D0,0D0,-5.5D0,0D0;                                113P     66
110,5.499999999209D0,1.029999999921D1,-9.327628597126D-10,           115P     67
5.499999999209D0,6.050000000079D1,-9.327628597126D-10;               115P     68
502,18,1.7D0,0D0,0D0,-1.7D0,0D0,0D0,1.7D0,5.08D1,0D0,-1.7D0,         117P     69
5.08D1,0D0,1.7D0,6.08D1,0D0,-1.7D0,6.08D1,0D0,5.2D0,6.08D1,0D0,      117P     70
-5.2D0,6.08D1,0D0,5.5D0,6.05D1,0D0,-5.5D0,6.05D1,0D0,-5.2D0,1D1,     117P     71
0D0,5.2D0,1D1,0D0,-5.5D0,1.03D1,0D0,5.5D0,1.03D1,0D0,1.7D0,          117P     72
9.5D0,0D0,-1.7D0,9.5D0,0D0,2.2D0,1D1,0D0,-2.2D0,1D1,0D0;             117P     73
504,30,19,117,1,117,2,23,117,2,117,1,99,117,3,117,4,103,117,4,       119P     74
117,3,79,117,5,117,6,83,117,6,117,5,93,117,5,117,3,95,117,6,117,     119P     75
4,87,117,7,117,8,109,117,9,117,10,91,117,8,117,7,67,117,10,117,      119P     76
9,47,117,11,117,12,113,117,13,117,14,51,117,12,117,11,71,117,14,     119P     77
117,13,115,117,14,117,9,73,117,13,117,10,75,117,8,117,10,105,        119P     78
117,7,117,9,63,117,12,117,14,61,117,11,117,13,27,117,15,117,16,      119P     79
55,117,17,117,18,41,117,16,117,15,59,117,18,117,17,29,117,1,117,     119P     80
15,43,117,2,117,16,37,117,16,117,18,33,117,15,117,17;                119P     81
128,1,1,1,1,0,0,1,0,0,-1.775312208414D0,-1.775312208414D0,           121P     82
1.775312208414D0,1.775312208414D0,-1.776712376853D0,                 121P     83
-1.776712376853D0,1.776712376853D0,1.776712376853D0,1D0,1D0,1D0,     121P     84
1D0,-1.775312208414D0,0D0,1.776712376853D0,1.775312208414D0,0D0,     121P     85
1.776712376853D0,-1.775312208414D0,0D0,-1.776712376853D0,            121P     86
1.775312208414D0,0D0,-1.776712376853D0,-1.775312208414D0,            121P     87
1.775312208414D0,-1.776712376853D0,1.776712376853D0;                 121P     88
508,2,0,119,1,1,0,0,119,2,1,0;                                       123P     89
510,121,1,0,123;                                                     125P     90
110,0D0,0D0,0D0,0D0,1D0,0D0;                                         127P     91
110,1.7D0,-1.9D-1,0D0,1.7D0,9.69D0,0D0;                              129P     92
120,127,129,-6.283185307180D-2,3.204424506662D0;                     131P     93
508,4,0,119,23,1,0,0,119,28,0,0,0,119,1,0,0,0,119,27,1,0;            133P     94
510,131,1,0,133;                                                     135P     95
110,0D0,9.5D0,0D0,0D0,1.05D1,0D0;                                    137P     96
124,1.497899420654D-1,-9.869278231482D-1,-5.946801789203D-2,         139P     97
2.196106464966D0,9.886775734982D-1,1.500555086017D-1,0D0,9.5D0,      139P     98
8.923503670323D-3,-5.879469563024D-2,9.982302113481D-1,              139P     99
1.308296393625D-1;                                                   139P    100
100,0D0,0D0,0D0,5D-1,0D0,-1.483565161344D-1,4.774833443383D-1;       141P    101
120,137,141,-3.328730658404D-3,3.263927633487D0;                     143P    102
508,4,0,119,23,0,0,0,119,30,1,0,0,119,24,1,0,0,119,29,0,0;           145P    103
510,143,1,0,145;                                                     147P    104
110,0D0,9.5D0,0D0,0D0,1.05D1,0D0;                                    149P    105
124,-1.497899420654D-1,9.869278231482D-1,5.946801789203D-2,          151P    106
-2.196106464966D0,9.886775734982D-1,1.500555086017D-1,0D0,9.5D0,     151P    107
-8.923503670323D-3,5.879469563024D-2,-9.982302113481D-1,             151P    108
-1.308296393625D-1;                                                  151P    109
100,0D0,0D0,0D0,5D-1,0D0,-1.483565161344D-1,4.774833443383D-1;       153P    110
120,149,153,-3.328730658403D-3,3.263927633487D0;                     155P    111
508,4,0,119,25,0,0,0,119,29,1,0,0,119,26,1,0,0,119,30,0,0;           157P    112
510,155,1,0,157;                                                     159P    113
110,0D0,0D0,0D0,0D0,1D0,0D0;                                         161P    114
110,1.7D0,-1.9D-1,0D0,1.7D0,9.69D0,0D0;                              163P    115
120,161,163,3.078760800518D0,6.346017160251D0;                       165P    116
508,4,0,119,25,1,0,0,119,27,0,0,0,119,2,0,0,0,119,28,1,0;            167P    117
510,165,1,0,167;                                                     169P    118
128,1,1,1,1,0,0,1,0,0,-5.408D0,-5.408D0,5.408D0,5.408D0,             171P    119
-5.408D0,-5.408D0,5.408D0,5.408D0,1D0,1D0,1D0,1D0,-5.408D0,1D1,      171P    120
5.408D0,5.408D0,1D1,5.408D0,-5.408D0,1D1,-5.408D0,5.408D0,1D1,       171P    121
-5.408D0,-5.408D0,5.408D0,-5.408D0,5.408D0;                          171P    122
508,2,0,119,13,0,0,0,119,15,0,0;                                     173P    123
508,2,0,119,24,0,0,0,119,26,0,0;                                     175P    124
510,171,2,0,173,175;                                                 177P    125
110,0D0,4.8D0,0D0,0D0,5.8D0,0D0;                                     179P    126
110,0D0,9.946746224847D0,-5.146746224847D0,0D0,1.035325377347D1,     181P    127
-5.553253773467D0;                                                   181P    128
120,179,181,-1.633628199912D0,1.633628200590D0;                      183P    129
508,4,0,119,13,1,0,0,119,21,1,0,0,119,14,0,0,0,119,22,0,0;           185P    130
510,183,1,0,185;                                                     187P    131
110,0D0,4.8D0,-1.167496615187D-14,0D0,5.8D0,-1.167496615187D-14;     189P    132
110,0D0,9.946746224847D0,-5.146746224847D0,0D0,1.035325377347D1,     191P    133
-5.553253773467D0;                                                   191P    134
120,189,191,1.507964453678D0,4.775220854180D0;                       193P    135
508,4,0,119,15,1,0,0,119,22,1,0,0,119,16,0,0,0,119,21,0,0;           195P    136
510,193,1,0,195;                                                     197P    137
110,0D0,1D1,0D0,0D0,1.1D1,0D0;                                       199P    138
110,5.5D0,9.296D0,0D0,5.5D0,6.1504D1,0D0;                            201P    139
120,199,201,3.078760800518D0,6.346017160251D0;                       203P    140
508,4,0,119,12,1,0,0,119,17,0,0,0,119,16,1,0,0,119,18,1,0;           205P    141
510,203,1,0,205;                                                     207P    142
110,0D0,6.6D1,-1.167496615187D-14,0D0,6.5D1,-1.167496615187D-14;     209P    143
110,0D0,6.085325377515D1,-5.146746224847D0,0D0,6.044674622653D1,     211P    144
-5.553253773467D0;                                                   211P    145
120,209,211,-4.775220854180D0,-1.507964453678D0;                     213P    146
508,4,0,119,11,1,0,0,119,20,1,0,0,119,12,0,0,0,119,19,0,0;           215P    147
510,213,1,0,215;                                                     217P    148
128,1,1,1,1,0,0,1,0,0,-5.408D0,-5.408D0,5.408D0,5.408D0,             219P    149
-5.408D0,-5.408D0,5.408D0,5.408D0,1D0,1D0,1D0,1D0,-5.408D0,          219P    150
6.08D1,5.408D0,5.408D0,6.08D1,5.408D0,-5.408D0,6.08D1,-5.408D0,      219P    151
5.408D0,6.08D1,-5.408D0,-5.408D0,5.408D0,-5.408D0,5.408D0;           219P    152
508,2,0,119,9,0,0,0,119,11,0,0;                                      221P    153
508,2,0,119,5,1,0,0,119,6,1,0;                                       223P    154
510,219,2,0,221,223;                                                 225P    155
110,0D0,6.08D1,0D0,0D0,6.18D1,0D0;                                   227P    156
110,1.7D0,5.06D1,0D0,1.7D0,6.1D1,0D0;                                229P    157
120,227,229,-6.283185307180D-2,3.204424506662D0;                     231P    158
508,4,0,119,5,0,0,0,119,7,1,0,0,119,3,1,0,0,119,8,0,0;               233P    159
510,231,1,0,233;                                                     235P    160
110,0D0,6.08D1,0D0,0D0,6.18D1,0D0;                                   237P    161
110,1.7D0,5.06D1,0D0,1.7D0,6.1D1,0D0;                                239P    162
120,237,239,3.078760800518D0,6.346017160251D0;                       241P    163
508,4,0,119,6,0,0,0,119,8,1,0,0,119,4,1,0,0,119,7,0,0;               243P    164
510,241,1,0,243;                                                     245P    165
128,1,1,1,1,0,0,1,0,0,-1.775312208414D0,-1.775312208414D0,           247P    166
1.775312208414D0,1.775312208414D0,-1.780160994215D0,                 247P    167
-1.780160994215D0,1.780160994215D0,1.780160994215D0,1D0,1D0,1D0,     247P    168
1D0,-1.775312208414D0,5.08D1,1.780160994215D0,1.775312208414D0,      247P    169
5.08D1,1.780160994215D0,-1.775312208414D0,5.08D1,                    247P    170
-1.780160994215D0,1.775312208414D0,5.08D1,-1.780160994215D0,         247P    171
-1.775312208414D0,1.775312208414D0,-1.780160994215D0,                247P    172
1.780160994215D0;                                                    247P    173
508,2,0,119,3,0,0,0,119,4,0,0;                                       249P    174
510,247,1,0,249;                                                     251P    175
110,0D0,6.6D1,0D0,0D0,6.5D1,0D0;                                     253P    176
110,0D0,6.085325377515D1,-5.146746224847D0,0D0,6.044674622653D1,     255P    177
-5.553253773467D0;                                                   255P    178
120,253,255,-1.633628200590D0,1.633628199912D0;                      257P    179
508,4,0,119,9,1,0,0,119,19,1,0,0,119,10,0,0,0,119,20,0,0;            259P    180
510,257,1,0,259;                                                     261P    181
110,0D0,1D1,0D0,0D0,1.1D1,0D0;                                       263P    182
110,5.5D0,9.296D0,0D0,5.5D0,6.1504D1,0D0;                            265P    183
120,263,265,-6.283185307180D-2,3.204424506662D0;                     267P    184
508,4,0,119,10,1,0,0,119,18,0,0,0,119,14,1,0,0,119,17,1,0;           269P    185
510,267,1,0,269;                                                     271P    186
514,16,125,0,135,1,147,0,159,0,169,1,177,0,187,1,197,1,207,1,        273P    187
217,1,225,1,235,0,245,0,251,1,261,1,271,1;                           273P    188
186,273,1,0;                                                         275P    189
S      1G      4D    276P    189                                        T      1
